<?xml version="1.0" encoding="utf-8"?>
<!-- Generator: Adobe Illustrator 17.1.0, SVG Export Plug-In . SVG Version: 6.00 Build 0)  -->
<!DOCTYPE svg PUBLIC "-//W3C//DTD SVG 1.1//EN" "http://www.w3.org/Graphics/SVG/1.1/DTD/svg11.dtd">
<svg version="1.1" id="Layer_1" xmlns="http://www.w3.org/2000/svg" xmlns:xlink="http://www.w3.org/1999/xlink" x="0px" y="0px"
	 viewBox="0 0 40 40" enable-background="new 0 0 40 40" xml:space="preserve">
<g>
	<line fill="none" stroke="#B35047" x1="2.5" y1="0" x2="2.5" y2="40"/>
	<line fill="none" stroke="#B35047" x1="5" y1="0" x2="5" y2="40"/>
	<line fill="none" stroke="#B35047" x1="7.5" y1="0" x2="7.5" y2="40"/>
	<line fill="none" stroke="#B35047" x1="10" y1="0" x2="10" y2="40"/>
	<line fill="none" stroke="#B35047" x1="12.5" y1="0" x2="12.5" y2="40"/>
	<line fill="none" stroke="#B35047" x1="15" y1="0" x2="15" y2="40"/>
	<line fill="none" stroke="#B35047" x1="17.5" y1="0" x2="17.5" y2="40"/>
	<line fill="none" stroke="#B35047" x1="20" y1="0" x2="20" y2="40"/>
	<line fill="none" stroke="#B35047" x1="22.5" y1="0" x2="22.5" y2="40"/>
	<line fill="none" stroke="#B35047" x1="25" y1="0" x2="25" y2="40"/>
	<line fill="none" stroke="#B35047" x1="27.5" y1="0" x2="27.5" y2="40"/>
	<line fill="none" stroke="#B35047" x1="30" y1="0" x2="30" y2="40"/>
	<line fill="none" stroke="#B35047" x1="32.5" y1="0" x2="32.5" y2="40"/>
	<line fill="none" stroke="#B35047" x1="35" y1="0" x2="35" y2="40"/>
	<line fill="none" stroke="#B35047" x1="37.5" y1="0" x2="37.5" y2="40"/>
	<line fill="none" stroke="#B35047" x1="0" y1="2.5" x2="40" y2="2.5"/>
	<line fill="none" stroke="#B35047" x1="0" y1="5" x2="40" y2="5"/>
	<line fill="none" stroke="#B35047" x1="0" y1="7.5" x2="40" y2="7.5"/>
	<line fill="none" stroke="#B35047" x1="0" y1="10" x2="40" y2="10"/>
	<line fill="none" stroke="#B35047" x1="0" y1="12.5" x2="40" y2="12.5"/>
	<line fill="none" stroke="#B35047" x1="0" y1="15" x2="40" y2="15"/>
	<line fill="none" stroke="#B35047" x1="0" y1="17.5" x2="40" y2="17.5"/>
	<line fill="none" stroke="#B35047" x1="0" y1="20" x2="40" y2="20"/>
	<line fill="none" stroke="#B35047" x1="0" y1="22.5" x2="40" y2="22.5"/>
	<line fill="none" stroke="#B35047" x1="0" y1="25" x2="40" y2="25"/>
	<line fill="none" stroke="#B35047" x1="0" y1="27.5" x2="40" y2="27.5"/>
	<line fill="none" stroke="#B35047" x1="0" y1="30" x2="40" y2="30"/>
	<line fill="none" stroke="#B35047" x1="0" y1="32.5" x2="40" y2="32.5"/>
	<line fill="none" stroke="#B35047" x1="0" y1="35" x2="40" y2="35"/>
	<line fill="none" stroke="#B35047" x1="0" y1="37.5" x2="40" y2="37.5"/>
	<rect fill="none" stroke="#B35047" width="40" height="40"/>
</g>
<g>
	<path d="M14.1,9.3v4.8c3.1,0,6.1,1.2,8.3,3.4c2.2,2.2,3.4,5.2,3.4,8.3h4.8C30.6,16.7,23.2,9.3,14.1,9.3z"/>
	<path d="M14.1,0.8v4.8c11.1,0,20.2,9.1,20.2,20.3h4.8C39.1,12,27.9,0.8,14.1,0.8z"/>
	<path d="M11.4,18c-1,0-1.7,0.3-2.3,0.9c-0.5,0.6-0.8,1.4-0.8,2.2c0,0.9,0.3,1.6,0.8,2.1c0.6,0.7,1.3,1,2.3,1c1.3,0,2.4,0.3,3.2,1
		c0.8,0.7,1.2,1.7,1.2,2.9c0,1.3-0.4,2.3-1.3,3.2c-0.8,0.9-1.9,1.3-3,1.3c-1.2,0-2.2-0.4-3-1.3c-0.8-0.9-1.3-1.9-1.3-3.2V12.8
		c0-1-0.3-1.8-0.9-2.4C5.6,9.8,4.8,9.6,4,9.6c-0.8,0-1.6,0.3-2.2,0.9c-0.6,0.6-0.9,1.4-0.9,2.4v15.5c0,3,1,5.6,3.1,7.8
		c2.1,2.1,4.5,3.2,7.5,3.2c2.9,0,5.4-1.1,7.4-3.2c2.1-2.1,3.1-4.7,3.1-7.7c0-3-1-5.5-3-7.4C16.9,19,14.4,18,11.4,18z"/>
</g>
</svg>
