<?xml version="1.0" encoding="UTF-8" standalone="no"?>
<svg width="81px" height="82px" viewBox="0 0 81 82" version="1.1" xmlns="http://www.w3.org/2000/svg" xmlns:xlink="http://www.w3.org/1999/xlink" xmlns:sketch="http://www.bohemiancoding.com/sketch/ns">
    <!-- Generator: Sketch 3.3.2 (12043) - http://www.bohemiancoding.com/sketch -->
    <title>Shape</title>
    <desc>Created with Sketch.</desc>
    <defs></defs>
    <g id="Page-1" stroke="none" stroke-width="1" fill="none" fill-rule="evenodd" sketch:type="MSPage">
        <g id="icon-blog" sketch:type="MSLayerGroup" fill="#FFFFFF">
            <g id="Shape" sketch:type="MSShapeGroup">
                <path d="M27.9711638,17.9367532 L27.9711638,28.0544491 C34.505509,28.0544491 40.829069,30.5838731 45.4663463,35.2211504 C50.1036236,39.8584277 52.6330476,46.1819876 52.6330476,52.7163329 L62.7507435,52.7163329 C62.7507435,33.5348677 47.1526289,17.9367532 27.9711638,17.9367532 L27.9711638,17.9367532 L27.9711638,17.9367532 Z M27.9711638,0.02 L27.9711638,10.1376959 C51.3683356,10.1376959 70.5498007,29.3191611 70.5498007,52.9271182 L80.6674966,52.9271182 C80.6674966,23.6279571 57.0595395,0.02 27.9711638,0.02 L27.9711638,0.02 L27.9711638,0.02 Z M22.2799598,36.275077 C20.1721065,36.275077 18.6966092,36.907433 17.4318972,38.172145 C16.3779705,39.436857 15.7456145,41.1231396 15.7456145,42.8094223 C15.7456145,44.7064903 16.3779705,46.1819876 17.4318972,47.2359143 C18.6966092,48.7114116 20.1721065,49.3437676 22.2799598,49.3437676 C25.0201691,49.3437676 27.3388078,49.9761236 29.0250904,51.4516209 C30.7113731,52.9271182 31.5545144,55.0349715 31.5545144,57.5643955 C31.5545144,60.3046048 30.7113731,62.4124581 28.8143051,64.3095261 C27.1280224,66.2065941 24.8093838,67.0497354 22.4907451,67.0497354 C19.9613212,67.0497354 17.8534678,66.2065941 16.1671852,64.3095261 C14.4809025,62.4124581 13.4269759,60.3046048 13.4269759,57.5643955 L13.4269759,25.3142398 C13.4269759,23.2063865 12.7946199,21.5201038 11.5299079,20.2553918 C10.0544106,18.9906798 8.36812793,18.5691092 6.68184528,18.5691092 C4.99556263,18.5691092 3.30927997,19.2014652 2.04456798,20.4661772 C0.779855995,21.7308891 0.1475,23.4171718 0.1475,25.5250251 L0.1475,58.1967515 C0.1475,64.5203114 2.25535332,70.0007301 6.68184528,74.6380074 C11.1083372,79.0644993 16.1671852,81.383138 22.4907451,81.383138 C28.6035198,81.383138 33.873153,79.0644993 38.0888597,74.6380074 C42.5153516,70.2115154 44.623205,64.7310968 44.623205,58.4075368 C44.623205,52.0839769 42.5153516,46.8143436 38.299645,42.8094223 C33.873153,38.3829303 28.6035198,36.275077 22.2799598,36.275077 L22.2799598,36.275077 L22.2799598,36.275077 Z"></path>
            </g>
        </g>
    </g>
</svg>