<?xml version="1.0" encoding="utf-8"?>
<!-- Generator: Adobe Illustrator 17.1.0, SVG Export Plug-In . SVG Version: 6.00 Build 0)  -->
<!DOCTYPE svg PUBLIC "-//W3C//DTD SVG 1.1//EN" "http://www.w3.org/Graphics/SVG/1.1/DTD/svg11.dtd">
<svg version="1.1" id="Layer_1" xmlns="http://www.w3.org/2000/svg" xmlns:xlink="http://www.w3.org/1999/xlink" x="0px" y="0px"
	 viewBox="0 0 40 40" enable-background="new 0 0 40 40" xml:space="preserve">
<g>
	<line fill="none" stroke="#B35047" x1="2.5" y1="0" x2="2.5" y2="40"/>
	<line fill="none" stroke="#B35047" x1="5" y1="0" x2="5" y2="40"/>
	<line fill="none" stroke="#B35047" x1="7.5" y1="0" x2="7.5" y2="40"/>
	<line fill="none" stroke="#B35047" x1="10" y1="0" x2="10" y2="40"/>
	<line fill="none" stroke="#B35047" x1="12.5" y1="0" x2="12.5" y2="40"/>
	<line fill="none" stroke="#B35047" x1="15" y1="0" x2="15" y2="40"/>
	<line fill="none" stroke="#B35047" x1="17.5" y1="0" x2="17.5" y2="40"/>
	<line fill="none" stroke="#B35047" x1="20" y1="0" x2="20" y2="40"/>
	<line fill="none" stroke="#B35047" x1="22.5" y1="0" x2="22.5" y2="40"/>
	<line fill="none" stroke="#B35047" x1="25" y1="0" x2="25" y2="40"/>
	<line fill="none" stroke="#B35047" x1="27.5" y1="0" x2="27.5" y2="40"/>
	<line fill="none" stroke="#B35047" x1="30" y1="0" x2="30" y2="40"/>
	<line fill="none" stroke="#B35047" x1="32.5" y1="0" x2="32.5" y2="40"/>
	<line fill="none" stroke="#B35047" x1="35" y1="0" x2="35" y2="40"/>
	<line fill="none" stroke="#B35047" x1="37.5" y1="0" x2="37.5" y2="40"/>
	<line fill="none" stroke="#B35047" x1="0" y1="2.5" x2="40" y2="2.5"/>
	<line fill="none" stroke="#B35047" x1="0" y1="5" x2="40" y2="5"/>
	<line fill="none" stroke="#B35047" x1="0" y1="7.5" x2="40" y2="7.5"/>
	<line fill="none" stroke="#B35047" x1="0" y1="10" x2="40" y2="10"/>
	<line fill="none" stroke="#B35047" x1="0" y1="12.5" x2="40" y2="12.5"/>
	<line fill="none" stroke="#B35047" x1="0" y1="15" x2="40" y2="15"/>
	<line fill="none" stroke="#B35047" x1="0" y1="17.5" x2="40" y2="17.5"/>
	<line fill="none" stroke="#B35047" x1="0" y1="20" x2="40" y2="20"/>
	<line fill="none" stroke="#B35047" x1="0" y1="22.5" x2="40" y2="22.5"/>
	<line fill="none" stroke="#B35047" x1="0" y1="25" x2="40" y2="25"/>
	<line fill="none" stroke="#B35047" x1="0" y1="27.5" x2="40" y2="27.5"/>
	<line fill="none" stroke="#B35047" x1="0" y1="30" x2="40" y2="30"/>
	<line fill="none" stroke="#B35047" x1="0" y1="32.5" x2="40" y2="32.5"/>
	<line fill="none" stroke="#B35047" x1="0" y1="35" x2="40" y2="35"/>
	<line fill="none" stroke="#B35047" x1="0" y1="37.5" x2="40" y2="37.5"/>
	<rect fill="none" stroke="#B35047" width="40" height="40"/>
</g>
<g>
	<rect x="0.2" y="7.6" width="39.7" height="5"/>
	<rect x="0.2" y="17.6" width="39.7" height="5"/>
	<rect x="0.2" y="27.4" width="39.7" height="5"/>
</g>
</svg>
