<svg viewBox="0 0 512 512" xmlns="http://www.w3.org/2000/svg">
    <path fill="#7CB342" d="M0 0h512v512H0z"/>
    <path d="M179 182.72h19.84l2.17 19.84h.93c3.72-7.027 8.112-12.71 13.175-17.05 5.063-4.34 11.935-6.51 20.615-6.51 15.293 0 24.8 8.68 28.52 26.04 4.547-7.853 9.507-14.157 14.88-18.91 5.373-4.753 12.297-7.13 20.77-7.13 10.54 0 18.652 3.978 24.335 11.935 5.683 7.957 8.525 19.478 8.525 34.565v107.88h-24.49V227.67c0-17.773-5.477-26.66-16.43-26.66-5.373 0-10.023 1.912-13.95 5.735-3.927 3.823-7.853 9.662-11.78 17.515v109.12h-20.46V227.67c0-17.773-5.683-26.66-17.05-26.66-5.373 0-9.92 1.912-13.64 5.735-3.72 3.823-7.543 9.662-11.47 17.515v109.12H179V182.72zM385.81 374.72c7.853 0 14.312-.517 19.375-1.55 5.063-1.033 9.042-2.635 11.935-4.805 2.893-2.17 4.857-5.063 5.89-8.68 1.033-3.617 1.55-7.905 1.55-12.865 0-9.507-.31-18.6-.93-27.28-.62-8.68-.93-18.29-.93-28.83 0-10.127 1.963-17.825 5.89-23.095 3.927-5.27 11.263-8.835 22.01-10.695v-1.24c-10.747-1.86-18.083-5.425-22.01-10.695-3.927-5.27-5.89-12.968-5.89-23.095 0-9.713.31-19.272.93-28.675.62-9.403.93-18.548.93-27.435 0-4.96-.517-9.248-1.55-12.865-1.033-3.617-2.997-6.51-5.89-8.68s-6.872-3.772-11.935-4.805c-5.063-1.033-11.522-1.55-19.375-1.55H370V123h18.91c9.713 0 18.135.672 25.265 2.015 7.13 1.343 13.072 3.565 17.825 6.665s8.267 7.285 10.54 12.555c2.273 5.27 3.41 11.935 3.41 19.995 0 10.747-.465 20.925-1.395 30.535a303.983 303.983 0 00-1.395 29.295c0 3.1.62 6.045 1.86 8.835 1.24 2.79 3.513 5.322 6.82 7.595 3.307 2.273 7.905 4.133 13.795 5.58s13.382 2.17 22.475 2.17v16.12c-9.093 0-16.585.723-22.475 2.17-5.89 1.447-10.488 3.307-13.795 5.58-3.307 2.273-5.58 4.805-6.82 7.595a21.513 21.513 0 00-1.86 8.835c0 5.167.155 10.127.465 14.88l.93 14.26c.31 4.753.62 9.662.93 14.725.31 5.063.465 10.385.465 15.965 0 8.06-1.137 14.725-3.41 19.995-2.273 5.27-5.787 9.455-10.54 12.555-4.753 3.1-10.695 5.322-17.825 6.665-7.13 1.343-15.552 2.015-25.265 2.015H370v-14.88h15.81zM65.16 348.37c0-5.58.155-10.902.465-15.965.31-5.063.62-9.972.93-14.725l.93-14.26c.31-4.753.465-9.713.465-14.88 0-3.1-.62-6.045-1.86-8.835-1.24-2.79-3.513-5.322-6.82-7.595-3.307-2.273-7.905-4.133-13.795-5.58S32.093 264.36 23 264.36v-16.12c9.093 0 16.585-.723 22.475-2.17 5.89-1.447 10.488-3.307 13.795-5.58 3.307-2.273 5.58-4.805 6.82-7.595a21.513 21.513 0 001.86-8.835c0-9.92-.465-19.685-1.395-29.295-.93-9.61-1.395-19.788-1.395-30.535 0-8.06 1.137-14.725 3.41-19.995 2.273-5.27 5.787-9.455 10.54-12.555 4.753-3.1 10.747-5.322 17.98-6.665 7.233-1.343 15.707-2.015 25.42-2.015h18.91v14.88H125.3c-7.853 0-14.312.517-19.375 1.55-5.063 1.033-8.99 2.635-11.78 4.805-2.79 2.17-4.702 5.063-5.735 8.68-1.033 3.617-1.55 7.905-1.55 12.865 0 8.887.31 18.032.93 27.435.62 9.403.93 18.962.93 28.675 0 10.127-2.015 17.825-6.045 23.095-4.03 5.27-11.418 8.835-22.165 10.695v1.24c10.747 1.86 18.135 5.425 22.165 10.695 4.03 5.27 6.045 12.968 6.045 23.095 0 10.54-.31 20.15-.93 28.83-.62 8.68-.93 17.773-.93 27.28 0 4.96.517 9.248 1.55 12.865 1.033 3.617 2.945 6.51 5.735 8.68 2.79 2.17 6.717 3.772 11.78 4.805s11.522 1.55 19.375 1.55h16.12v14.88h-18.91c-9.713 0-18.187-.672-25.42-2.015-7.233-1.343-13.227-3.565-17.98-6.665s-8.267-7.285-10.54-12.555c-2.273-5.27-3.41-11.935-3.41-19.995z" fill="#FFF"/>
</svg>
